<?xml version="1.0" encoding="utf-8"?>
<!-- Generator: Adobe Illustrator 16.0.0, SVG Export Plug-In . SVG Version: 6.00 Build 0)  -->
<!DOCTYPE svg PUBLIC "-//W3C//DTD SVG 1.1//EN" "http://www.w3.org/Graphics/SVG/1.1/DTD/svg11.dtd">
<svg version="1.1" id="Layer_1" xmlns="http://www.w3.org/2000/svg" xmlns:xlink="http://www.w3.org/1999/xlink" x="0px" y="0px"
	 width="512px" height="512px" viewBox="0 0 512 512" enable-background="new 0 0 512 512" xml:space="preserve">
<g id="_x31_8._laptop_x2C__electronics_x2C__appliances_x2C__technology_x2C__gadget_x2C__computer">
	<g>
		<g>
			<g>
				<path d="M180.001,311.994c-1.023,0-2.047-0.391-2.828-1.172c-1.562-1.562-1.562-4.094,0-5.656l151.983-151.982
					c1.562-1.562,4.093-1.562,5.655,0c1.562,1.562,1.562,4.094,0,5.656L182.829,310.822
					C182.048,311.604,181.024,311.994,180.001,311.994z"/>
			</g>
		</g>
		<g>
			<g>
				<path d="M259.992,295.996c-1.023,0-2.047-0.391-2.828-1.172c-1.562-1.562-1.562-4.094,0-5.656l55.993-55.993
					c1.562-1.562,4.094-1.562,5.656,0c1.562,1.562,1.562,4.093,0,5.655l-55.994,55.994
					C262.038,295.605,261.016,295.996,259.992,295.996z"/>
			</g>
		</g>
		<g>
			<g>
				<path d="M195.999,232.003c-1.023,0-2.047-0.391-2.828-1.172c-1.562-1.562-1.562-4.093,0-5.655l55.994-55.994
					c1.562-1.562,4.093-1.562,5.655,0c1.562,1.562,1.562,4.093,0,5.656l-55.993,55.993
					C198.046,231.612,197.022,232.003,195.999,232.003z"/>
			</g>
		</g>
	</g>
	<g>
		<g>
			<path d="M256.238,104.018c-2.207,0-4.039-1.789-4.039-4s1.75-4,3.96-4h0.078c2.211,0,4,1.789,4,4
				S258.449,104.018,256.238,104.018z"/>
		</g>
	</g>
	<g>
		<g>
			<path d="M467.976,375.986c-2.21,0-3.999-1.789-3.999-3.999V100.018c0-2.203-1.797-4-4-4H52.023c-2.207,0-4,1.797-4,4v271.969
				c0,2.21-1.789,3.999-4,3.999c-2.211,0-4-1.789-4-3.999V100.018c0-6.617,5.383-11.999,11.999-11.999h407.953
				c6.616,0,11.999,5.382,11.999,11.999v271.969C471.976,374.197,470.187,375.986,467.976,375.986z"/>
		</g>
	</g>
	<g>
		<g>
			<path d="M491.973,423.98H20.027c-2.211,0-4-1.788-4-3.999s1.789-3.999,4-3.999h471.945c2.211,0,4,1.788,4,3.999
				S494.184,423.98,491.973,423.98z"/>
		</g>
	</g>
	<g>
		<g>
			<path d="M507.971,407.982c-2.21,0-3.999-1.788-3.999-3.999v-11.999H303.994v4c0,2.211-1.789,3.999-3.999,3.999h-87.99
				c-2.21,0-4-1.788-4-3.999v-4H8.028v11.999c0,2.211-1.789,3.999-4,3.999s-4-1.788-4-3.999v-15.998c0-2.211,1.789-4,4-4h207.976
				c2.211,0,4,1.789,4,4v3.999h79.99v-3.999c0-2.211,1.789-4,4-4h207.976c2.211,0,4,1.789,4,4v15.998
				C511.971,406.194,510.182,407.982,507.971,407.982z"/>
		</g>
	</g>
	<g>
		<g>
			<path d="M451.978,359.988H60.022c-2.211,0-4-1.789-4-4V108.017c0-2.21,1.789-4,4-4h391.955c2.211,0,3.999,1.789,3.999,4v247.971
				C455.977,358.199,454.188,359.988,451.978,359.988z M64.022,351.989h383.957V112.017H64.022V351.989z"/>
		</g>
	</g>
	<g>
		<g>
			<path d="M20.027,423.98c-11.026,0-19.998-8.967-19.998-19.997c0-2.211,1.789-4,4-4s4,1.789,4,4
				c0,6.616,5.382,11.999,11.999,11.999c2.21,0,3.999,1.788,3.999,3.999S22.238,423.98,20.027,423.98z"/>
		</g>
	</g>
	<g>
		<g>
			<path d="M491.973,423.98c-2.211,0-3.999-1.788-3.999-3.999s1.788-3.999,3.999-3.999c6.617,0,11.999-5.383,11.999-11.999
				c0-2.211,1.789-4,3.999-4c2.211,0,4,1.789,4,4C511.971,415.014,503.003,423.98,491.973,423.98z"/>
		</g>
	</g>
	<g>
		<g>
			<path d="M36.025,387.985H20.027c-2.211,0-4-1.789-4-4c0-2.21,1.789-3.999,4-3.999h15.998c2.21,0,3.999,1.789,3.999,3.999
				C40.024,386.196,38.236,387.985,36.025,387.985z"/>
		</g>
	</g>
	<g>
		<g>
			<path d="M68.021,387.985H52.023c-2.211,0-4-1.789-4-4c0-2.21,1.789-3.999,4-3.999h15.998c2.211,0,4,1.789,4,3.999
				C72.021,386.196,70.232,387.985,68.021,387.985z"/>
		</g>
	</g>
	<g>
		<g>
			<path d="M100.018,387.985H84.02c-2.21,0-4-1.789-4-4c0-2.21,1.789-3.999,4-3.999h15.998c2.211,0,4,1.789,4,3.999
				C104.018,386.196,102.229,387.985,100.018,387.985z"/>
		</g>
	</g>
	<g>
		<g>
			<path d="M132.014,387.985h-15.998c-2.21,0-4-1.789-4-4c0-2.21,1.789-3.999,4-3.999h15.998c2.21,0,4,1.789,4,3.999
				C136.014,386.196,134.225,387.985,132.014,387.985z"/>
		</g>
	</g>
	<g>
		<g>
			<path d="M164.011,387.985h-15.998c-2.211,0-4-1.789-4-4c0-2.21,1.789-3.999,4-3.999h15.998c2.21,0,3.999,1.789,3.999,3.999
				C168.01,386.196,166.221,387.985,164.011,387.985z"/>
		</g>
	</g>
	<g>
		<g>
			<path d="M196.007,387.985h-15.998c-2.211,0-4-1.789-4-4c0-2.21,1.789-3.999,4-3.999h15.998c2.211,0,4,1.789,4,3.999
				C200.006,386.196,198.218,387.985,196.007,387.985z"/>
		</g>
	</g>
	<g>
		<g>
			<path d="M331.991,387.985h-15.998c-2.211,0-3.999-1.789-3.999-4c0-2.21,1.788-3.999,3.999-3.999h15.998
				c2.211,0,3.999,1.789,3.999,3.999C335.99,386.196,334.202,387.985,331.991,387.985z"/>
		</g>
	</g>
	<g>
		<g>
			<path d="M363.987,387.985h-15.998c-2.21,0-3.999-1.789-3.999-4c0-2.21,1.789-3.999,3.999-3.999h15.998c2.211,0,4,1.789,4,3.999
				C367.987,386.196,366.198,387.985,363.987,387.985z"/>
		</g>
	</g>
	<g>
		<g>
			<path d="M395.984,387.985h-15.998c-2.211,0-4-1.789-4-4c0-2.21,1.789-3.999,4-3.999h15.998c2.21,0,3.999,1.789,3.999,3.999
				C399.983,386.196,398.194,387.985,395.984,387.985z"/>
		</g>
	</g>
	<g>
		<g>
			<path d="M427.98,387.985h-15.998c-2.211,0-4-1.789-4-4c0-2.21,1.789-3.999,4-3.999h15.998c2.211,0,4,1.789,4,3.999
				C431.98,386.196,430.191,387.985,427.98,387.985z"/>
		</g>
	</g>
	<g>
		<g>
			<path d="M459.977,387.985h-15.998c-2.211,0-4-1.789-4-4c0-2.21,1.789-3.999,4-3.999h15.998c2.211,0,4,1.789,4,3.999
				C463.977,386.196,462.188,387.985,459.977,387.985z"/>
		</g>
	</g>
	<g>
		<g>
			<path d="M491.973,387.985h-15.998c-2.211,0-3.999-1.789-3.999-4c0-2.21,1.788-3.999,3.999-3.999h15.998c2.211,0,4,1.789,4,3.999
				C495.973,386.196,494.184,387.985,491.973,387.985z"/>
		</g>
	</g>
</g>
</svg>
